<svg width="79" height="38" viewBox="0 0 79 38" fill="none" xmlns="http://www.w3.org/2000/svg">
<path d="M5.85254 24.5723H13.6094V28H1.39648V9.51562H5.85254V24.5723ZM23.0293 28C22.877 27.7207 22.7415 27.3102 22.623 26.7686C21.8359 27.7588 20.7357 28.2539 19.3223 28.2539C18.0273 28.2539 16.9271 27.8646 16.0215 27.0859C15.1159 26.2988 14.6631 25.3128 14.6631 24.1279C14.6631 22.6383 15.2132 21.5127 16.3135 20.751C17.4137 19.9893 19.0133 19.6084 21.1123 19.6084H22.4326V18.8848C22.4326 17.6237 21.8867 16.9932 20.7949 16.9932C19.7793 16.9932 19.2715 17.4925 19.2715 18.4912H14.9932C14.9932 17.1624 15.556 16.0833 16.6816 15.2539C17.8158 14.4245 19.2588 14.0098 21.0107 14.0098C22.7627 14.0098 24.1465 14.4372 25.1621 15.292C26.1777 16.1468 26.6982 17.319 26.7236 18.8086V24.8896C26.7406 26.1507 26.9352 27.1156 27.3076 27.7842V28H23.0293ZM20.3506 25.207C20.8838 25.207 21.3239 25.0928 21.6709 24.8643C22.0264 24.6357 22.2803 24.3776 22.4326 24.0898V21.8936H21.1885C19.6989 21.8936 18.9541 22.5622 18.9541 23.8994C18.9541 24.2887 19.0853 24.6061 19.3477 24.8516C19.61 25.0885 19.9443 25.207 20.3506 25.207ZM33.0332 14.2637L33.1729 15.876C34.1208 14.6318 35.4284 14.0098 37.0957 14.0098C38.526 14.0098 39.5924 14.4372 40.2949 15.292C41.0059 16.1468 41.374 17.4333 41.3994 19.1514V28H37.1084V19.3291C37.1084 18.6351 36.9688 18.1273 36.6895 17.8057C36.4102 17.4756 35.9023 17.3105 35.166 17.3105C34.3281 17.3105 33.7061 17.6406 33.2998 18.3008V28H29.0215V14.2637H33.0332ZM43.2402 21.0303C43.2402 18.8551 43.71 17.1413 44.6494 15.8887C45.5889 14.6361 46.9007 14.0098 48.585 14.0098C49.8122 14.0098 50.8447 14.4922 51.6826 15.457V8.5H55.9736V28H52.127L51.9111 26.5273C51.0309 27.6784 49.9137 28.2539 48.5596 28.2539C46.9261 28.2539 45.6312 27.6276 44.6748 26.375C43.7184 25.1224 43.2402 23.3408 43.2402 21.0303ZM47.5186 21.2969C47.5186 23.7344 48.2295 24.9531 49.6514 24.9531C50.5993 24.9531 51.2764 24.5553 51.6826 23.7598V18.5293C51.2933 17.7168 50.6247 17.3105 49.6768 17.3105C48.3564 17.3105 47.6413 18.377 47.5312 20.5098L47.5186 21.2969ZM62.918 28H58.627V14.2637H62.918V28ZM58.373 10.7217C58.373 10.1123 58.5931 9.61296 59.0332 9.22363C59.4733 8.83431 60.0446 8.63965 60.7471 8.63965C61.4495 8.63965 62.0208 8.83431 62.4609 9.22363C62.901 9.61296 63.1211 10.1123 63.1211 10.7217C63.1211 11.3311 62.901 11.8304 62.4609 12.2197C62.0208 12.609 61.4495 12.8037 60.7471 12.8037C60.0446 12.8037 59.4733 12.609 59.0332 12.2197C58.5931 11.8304 58.373 11.3311 58.373 10.7217ZM72.2109 28.2539C70.1035 28.2539 68.3981 27.6276 67.0947 26.375C65.7913 25.1139 65.1396 23.4762 65.1396 21.4619V21.1064C65.1396 19.7015 65.3978 18.4616 65.9141 17.3867C66.4388 16.3118 67.2005 15.4824 68.1992 14.8984C69.1979 14.306 70.3828 14.0098 71.7539 14.0098C73.6836 14.0098 75.207 14.6107 76.3242 15.8125C77.4414 17.0059 78 18.6732 78 20.8145V22.4775H69.4941C69.6465 23.2477 69.9808 23.8529 70.4971 24.293C71.0133 24.7331 71.682 24.9531 72.5029 24.9531C73.8571 24.9531 74.915 24.4792 75.6768 23.5312L77.6318 25.8418C77.0986 26.5781 76.3411 27.1663 75.3594 27.6064C74.3861 28.0381 73.3366 28.2539 72.2109 28.2539ZM71.7285 17.3105C70.4759 17.3105 69.7311 18.14 69.4941 19.7988H73.8105V19.4688C73.8275 18.7832 73.654 18.2542 73.29 17.8818C72.9261 17.501 72.4056 17.3105 71.7285 17.3105Z" fill="#37447E"/>
</svg>
